HIERARCHY
ROOT Hips
{
	OFFSET 56.877701 -32.693596 43.373703
	CHANNELS 6 Xposition Yposition Zposition Zrotation Xrotation Yrotation
	JOINT Chest
	{
		OFFSET -0.779999 1.005800 5.403099
		CHANNELS 6 Xposition Yposition Zposition Zrotation Xrotation Yrotation
		JOINT Chest2
		{
			OFFSET 0.000000 0.000000 4.236801
			CHANNELS 6 Xposition Yposition Zposition Zrotation Xrotation Yrotation
			JOINT Neck
			{
				OFFSET 0.000000 0.000000 9.874401
				CHANNELS 6 Xposition Yposition Zposition Zrotation Xrotation Yrotation
				JOINT Head
				{
					OFFSET 0.000000 0.000002 2.173893
					CHANNELS 6 Xposition Yposition Zposition Zrotation Xrotation Yrotation
					End Site
					{
						OFFSET 0.000000 0.000000 6.508102
					}
				}
			}
			JOINT LeftCollar
			{
				OFFSET 2.681599 -0.377600 5.432499
				CHANNELS 6 Xposition Yposition Zposition Zrotation Xrotation Yrotation
				JOINT LeftShoulder
				{
					OFFSET 5.161499 0.000000 0.000000
					CHANNELS 6 Xposition Yposition Zposition Zrotation Xrotation Yrotation
					JOINT LeftElbow
					{
						OFFSET 0.000000 0.000000 -10.869099
						CHANNELS 6 Xposition Yposition Zposition Zrotation Xrotation Yrotation
						JOINT LeftWrist
						{
							OFFSET 0.000000 0.000000 -13.344799
							CHANNELS 6 Xposition Yposition Zposition Zrotation Xrotation Yrotation
							End Site
							{
								OFFSET 0.000000 0.000000 -2.173901
							}
						}
					}
				}
			}
			JOINT RightCollar
			{
				OFFSET -2.381901 -1.419600 6.136600
				CHANNELS 6 Xposition Yposition Zposition Zrotation Xrotation Yrotation
				JOINT RightShoulder
				{
					OFFSET -4.550499 0.000000 0.000000
					CHANNELS 6 Xposition Yposition Zposition Zrotation Xrotation Yrotation
					JOINT RightElbow
					{
						OFFSET 0.000000 0.000000 -11.106499
						CHANNELS 6 Xposition Yposition Zposition Zrotation Xrotation Yrotation
						JOINT RightWrist
						{
							OFFSET 0.000000 0.000000 -12.874298
							CHANNELS 6 Xposition Yposition Zposition Zrotation Xrotation Yrotation
							End Site
							{
								OFFSET 0.000000 0.000000 -2.173901
							}
						}
					}
				}
			}
		}
	}
	JOINT LeftHip
	{
		OFFSET 2.431900 0.469601 -2.489399
		CHANNELS 6 Xposition Yposition Zposition Zrotation Xrotation Yrotation
		JOINT LeftKnee
		{
			OFFSET 0.000000 -0.000004 -18.200201
			CHANNELS 6 Xposition Yposition Zposition Zrotation Xrotation Yrotation
			JOINT LeftAnkle
			{
				OFFSET 0.000000 0.000000 -16.279900
				CHANNELS 6 Xposition Yposition Zposition Zrotation Xrotation Yrotation
				End Site
				{
					OFFSET 0.000000 -8.394100 0.000000
				}
			}
		}
	}
	JOINT RightHip
	{
		OFFSET -1.987999 -0.073502 -2.713001
		CHANNELS 6 Xposition Yposition Zposition Zrotation Xrotation Yrotation
		JOINT RightKnee
		{
			OFFSET 0.000000 -0.000004 -19.547802
			CHANNELS 6 Xposition Yposition Zposition Zrotation Xrotation Yrotation
			JOINT RightAnkle
			{
				OFFSET 0.000000 0.000000 -14.881199
				CHANNELS 6 Xposition Yposition Zposition Zrotation Xrotation Yrotation
				End Site
				{
					OFFSET 0.000000 -7.922699 0.000000
				}
			}
		}
	}
}
MOTION
Frames: 9
Frame Time: 0.041667
61.168999 -42.090191 42.276699 4609.440041 -13.179431 2.646396 -0.779996 1.005807 5.403096 12.770255 -1.899556 4.990847 0.000009 -0.000009 4.236795 -2.311368 5.201006 0.760485 -0.000002 0.000002 9.874398 59.006947 3.232021 -20.078326 0.000001 0.000006 2.173901 2.841221 1.327328 7.959015 2.681596 -0.377592 5.432497 -11.533855 4.124497 -17.458122 5.161497 -0.000003 -0.000008 78.447666 -173.685946 130.357849 0.000004 -0.000002 -10.869096 -39.940194 2.142998 0.736437 0.000002 -0.000001 -13.344802 -24.714076 19.133797 -55.869595 -2.381904 -1.419588 6.136591 20.619103 3.138516 16.215059 -4.550495 -0.000007 -0.000005 -1162.389132 -531.268506 -494.328493 0.000005 0.000001 -11.106501 751.153934 7.686398 718.434431 0.000001 -0.000003 -12.874306 -301.557169 5.179043 73.031402 2.431907 0.469604 -2.489405 -353.255963 9.924275 -9.837331 0.000005 -0.000001 -18.200203 222.540103 24.248077 132.360952 0.000002 -0.000003 -16.279900 52.470056 24.544671 40.173574 -1.988001 -0.073497 -2.712998 9.800260 18.552918 -6.418447 -0.000002 0.000002 -19.547806 -2008.911413 161.469292 169.404469 -0.000004 0.000005 -14.881195 2180.201192 31.295858 -346.840558
61.173199 -42.090797 42.273399 4609.435233 -13.190131 2.671234 -0.780005 1.005796 5.403093 12.897526 -1.878385 4.989930 -0.000001 -0.000003 4.236794 -2.350905 5.189956 0.759462 0.000009 0.000008 9.874397 58.901209 3.175893 -20.124358 -0.000002 -0.000002 2.173893 2.867911 1.312383 7.968485 2.681608 -0.377595 5.432500 -11.635411 4.386704 -17.350974 5.161503 -0.000016 -0.000009 78.581962 -173.907094 130.142629 0.000005 0.000003 -10.869095 -39.878811 2.118455 0.754784 -0.000005 0.000006 -13.344794 -24.774022 19.113707 -55.894071 -2.381897 -1.419600 6.136595 20.712024 3.345260 16.013179 -4.550501 -0.000005 0.000001 -1162.614692 -531.437786 -494.155772 0.000005 -0.000005 -11.106500 751.109455 7.662607 718.443283 0.000006 0.000002 -12.874295 -301.424608 5.180695 73.029161 2.431902 0.469598 -2.489397 -353.212441 9.852653 -9.812162 -0.000008 0.000000 -18.200203 222.529353 24.321481 132.334983 0.000000 0.000001 -16.279892 52.470903 24.583509 40.038005 -1.988003 -0.073503 -2.712991 9.713047 18.550580 -6.391626 -0.000006 0.000001 -19.547802 -2009.018291 161.436234 169.382394 -0.000002 0.000000 -14.881200 2180.312223 31.389142 -346.708025
61.176701 -42.091793 42.270500 4609.427802 -13.196798 2.695112 -0.780005 1.005787 5.403090 13.012459 -1.871338 4.995491 0.000005 -0.000008 4.236804 -2.377028 5.172938 0.758259 -0.000002 0.000002 9.874400 58.798592 3.117532 -20.183921 0.000000 0.000002 2.173892 2.902944 1.293029 7.962255 2.681597 -0.377602 5.432498 -11.761037 4.688794 -17.228645 5.161493 -0.000010 -0.000007 78.755858 -174.149661 129.911018 0.000004 0.000003 -10.869093 -39.876051 2.096092 0.776342 -0.000002 -0.000010 -13.344804 -24.772061 19.089966 -55.910112 -2.381905 -1.419598 6.136599 20.834995 3.620872 15.763761 -4.550502 -0.000014 -0.000010 -1162.833040 -531.708589 -493.915021 0.000005 0.000002 -11.106496 750.975310 7.616151 718.465140 0.000002 -0.000006 -12.874297 -301.261749 5.179309 73.028936 2.431892 0.469592 -2.489399 -353.171378 9.779293 -9.788327 0.000003 -0.000006 -18.200203 222.506021 24.397746 132.315340 0.000001 -0.000000 -16.279900 52.468325 24.638914 39.868729 -1.988009 -0.073510 -2.713001 9.649458 18.547234 -6.371597 -0.000004 -0.000002 -19.547806 -2009.089544 161.407424 169.361084 -0.000004 0.000006 -14.881198 2180.392218 31.453902 -346.604288
61.179497 -42.093098 42.268002 4609.419933 -13.201739 2.720113 -0.779998 1.005796 5.403101 13.118183 -1.874335 5.005727 0.000010 0.000001 4.236796 -2.393234 5.147142 0.756286 -0.000007 0.000006 9.874403 58.697416 3.058289 -20.257708 0.000007 0.000005 2.173883 2.940816 1.275852 7.947981 2.681599 -0.377589 5.432495 -11.916181 5.041763 -17.083013 5.161497 -0.000003 -0.000002 78.976473 -174.422309 129.650446 0.000006 -0.000005 -10.869104 -39.906808 2.073525 0.799585 0.000006 -0.000010 -13.344793 -24.736367 19.065199 -55.923151 -2.381905 -1.419594 6.136593 20.991521 3.969634 15.456973 -4.550493 -0.000001 -0.000011 -1163.048109 -532.091735 -493.606952 0.000005 -0.000007 -11.106500 750.767618 7.553752 718.496067 0.000010 -0.000004 -12.874296 -301.094054 5.186442 73.033942 2.431906 0.469601 -2.489395 -353.132501 9.707344 -9.769812 -0.000001 -0.000001 -18.200197 222.481487 24.454698 132.294057 -0.000007 -0.000006 -16.279898 52.469711 24.695758 39.721952 -1.987994 -0.073506 -2.712992 9.605443 18.542811 -6.360714 -0.000009 -0.000002 -19.547804 -2009.171725 161.383477 169.342396 0.000004 -0.000004 -14.881198 2180.467186 31.516170 -346.506452
61.181801 -42.094597 42.265598 4609.412502 -13.207036 2.747117 -0.779988 1.005799 5.403094 13.223232 -1.881712 5.019842 0.000002 0.000000 4.236798 -2.405139 5.109725 0.753036 -0.000009 0.000004 9.874407 58.640097 3.001495 -20.279419 0.000004 0.000005 2.173892 2.812756 1.229458 7.787771 2.681595 -0.377595 5.432508 -12.107793 5.460253 -16.903444 5.161497 -0.000004 -0.000009 79.250644 -174.736238 129.344658 0.000004 0.000002 -10.869098 -39.935006 2.048485 0.823499 0.000005 -0.000011 -13.344803 -24.705563 19.035724 -55.941906 -2.381912 -1.419596 6.136606 21.183932 4.394154 15.082016 -4.550502 0.000000 0.000012 -1163.267331 -532.597661 -493.235281 0.000006 -0.000007 -11.106503 750.521076 7.483860 718.531038 0.000005 -0.000010 -12.874296 -300.951850 5.218356 73.049379 2.431913 0.469594 -2.489398 -353.095645 9.639369 -9.759364 -0.000008 -0.000007 -18.200209 222.455614 24.488313 132.272528 0.000000 0.000003 -16.279900 52.468799 24.741942 39.620008 -1.987992 -0.073503 -2.712995 9.573267 18.537202 -6.358188 -0.000000 0.000005 -19.547802 -2009.300679 161.362973 169.327097 -0.000008 0.000006 -14.881201 2180.559203 31.598340 -346.392415
61.183998 -42.096199 42.263599 4609.407256 -13.214977 2.774359 -0.779993 1.005803 5.403094 13.336556 -1.887857 5.038885 0.000005 -0.000005 4.236810 -2.417275 5.058264 0.748212 -0.000004 -0.000004 9.874391 58.528355 2.945099 -20.381841 0.000001 0.000004 2.173894 2.808272 1.226776 7.753930 2.681602 -0.377604 5.432488 -12.342971 5.956946 -16.679481 5.161499 -0.000004 -0.000002 79.585774 -175.103483 128.978041 0.000000 -0.000008 -10.869105 -39.914714 2.016829 0.845691 0.000005 -0.000002 -13.344806 -24.722338 19.007134 -55.980644 -2.381895 -1.419600 6.136590 21.414404 4.897339 14.628129 -4.550506 -0.000006 -0.000002 -1163.515512 -533.219864 -492.802520 0.000006 -0.000001 -11.106498 750.288904 7.414566 718.562839 0.000007 -0.000002 -12.874290 -300.851911 5.293523 73.080053 2.431905 0.469595 -2.489400 -353.059527 9.577472 -9.757042 0.000001 0.000004 -18.200199 222.436216 24.488112 132.248131 0.000002 -0.000003 -16.279907 52.481312 24.766739 39.591157 -1.987992 -0.073501 -2.712997 9.546079 18.532569 -6.360326 -0.000003 0.000003 -19.547798 -2009.513125 161.347018 169.313109 -0.000005 0.000005 -14.881193 2180.688812 31.723439 -346.239665
61.186199 -42.098198 42.262104 4609.403759 -13.227063 2.798707 -0.779992 1.005805 5.403096 13.457643 -1.888830 5.062526 0.000006 -0.000005 4.236801 -2.430442 4.998131 0.742303 0.000002 0.000002 9.874401 58.410507 2.891845 -20.490482 -0.000005 0.000003 2.173894 2.805332 1.238216 7.730962 2.681598 -0.377601 5.432496 -12.605578 6.495422 -16.425871 5.161503 -0.000007 -0.000002 79.965218 -175.507448 128.571180 0.000007 -0.000008 -10.869094 -39.833199 1.978928 0.864095 -0.000001 -0.000002 -13.344786 -24.799049 18.970476 -56.042450 -2.381897 -1.419595 6.136593 21.666301 5.437621 14.123733 -4.550501 -0.000006 0.000003 -1163.795714 -533.901080 -492.337521 -0.000005 0.000002 -11.106499 750.090500 7.342810 718.590761 0.000006 -0.000001 -12.874295 -300.792187 5.399373 73.120536 2.431908 0.469597 -2.489398 -353.022781 9.523908 -9.761447 0.000009 0.000001 -18.200205 222.423567 24.456158 132.220182 -0.000002 0.000002 -16.279909 52.498497 24.760703 39.661293 -1.987997 -0.073502 -2.712996 9.520321 18.532578 -6.362819 -0.000013 0.000000 -19.547804 -2009.833761 161.339232 169.294039 0.000000 0.000005 -14.881197 2180.867381 31.909892 -346.028694
61.188503 -42.100697 42.261009 4609.399825 -13.243821 2.815880 -0.780004 1.005802 5.403100 13.575668 -1.883748 5.090157 0.000012 -0.000007 4.236802 -2.438305 4.935546 0.736301 0.000009 -0.000004 9.874397 58.292810 2.843427 -20.597549 -0.000005 0.000007 2.173884 2.806740 1.264274 7.723103 2.681602 -0.377588 5.432503 -12.878811 7.034218 -16.173130 5.161498 0.000000 -0.000012 80.317779 -175.870637 128.237662 0.000008 0.000001 -10.869105 -39.630216 2.046748 0.845184 -0.000001 -0.000005 -13.344805 -24.993552 18.925660 -56.137776 -2.381898 -1.419591 6.136602 21.925737 5.985066 13.604479 -4.550505 -0.000013 -0.000000 -1164.114383 -534.579071 -491.855091 0.000004 0.000001 -11.106493 749.954935 7.260674 718.613164 0.000008 -0.000005 -12.874296 -300.769620 5.517799 73.160451 2.431897 0.469605 -2.489397 -352.986553 9.481100 -9.768173 -0.000010 -0.000002 -18.200201 222.419892 24.401985 132.187875 0.000005 0.000002 -16.279898 52.516334 24.733432 39.809064 -1.988004 -0.073501 -2.712995 9.494233 18.539157 -6.319793 -0.000000 -0.000004 -19.547802 -2010.240294 161.319410 169.229070 0.000003 -0.000000 -14.881203 2181.085510 32.154389 -345.755678
61.191097 -42.103996 42.260601 4609.393268 -13.264468 2.822594 -0.779994 1.005807 5.403095 13.677479 -1.874419 5.120335 0.000008 -0.000003 4.236806 -2.433706 4.876360 0.730851 -0.000002 0.000004 9.874397 58.182823 2.801847 -20.697445 0.000001 0.000003 2.173894 2.810922 1.299055 7.720258 2.681605 -0.377596 5.432492 -13.489465 7.763103 -15.843042 5.161495 -0.000001 -0.000005 81.116385 -176.321210 127.709347 -0.000004 0.000007 -10.869101 -39.318547 1.996852 0.849247 0.000005 -0.000006 -13.344807 -25.290556 18.864626 -56.265524 -2.381898 -1.419598 6.136591 22.179933 6.512150 13.108059 -4.550495 0.000001 -0.000006 -1164.497311 -535.170839 -491.362443 0.000011 0.000004 -11.106493 749.858766 7.140546 718.636168 0.000010 -0.000007 -12.874300 -300.232166 5.854570 74.783557 2.431909 0.469603 -2.489400 -352.953768 9.450592 -9.773208 0.000003 0.000002 -18.200207 222.424045 24.343995 132.154530 -0.000009 -0.000001 -16.279900 52.522635 24.696870 39.995877 -1.988001 -0.073495 -2.713002 9.468199 18.556681 -6.302966 -0.000008 -0.000008 -19.547806 -2010.667372 161.322935 169.192078 -0.000001 -0.000007 -14.881199 2181.308666 32.401625 -345.480612
